#!OML:ASF F:\VICON\USERDATA\INSTALL\rory3\rory3.ASF
:FULLY-SPECIFIED
:DEGREES
317
root 1.62067 17.9799 29.5733 -5.66202 2.20741 -5.01891
lowerback 18.8744 -0.000834808 2.62448
upperback 0.63745 0.806099 2.30425
thorax -9.91953 0.3225 0.804603
lowerneck -6.99674 0.763868 1.14125
upperneck 33.6942 1.19387 -0.798656
head 12.2575 0.598521 -0.355521
rclavicle 7.0817e-016 -2.08724e-014
rhumerus -39.3034 -2.90721 -81.8701
rradius 54.8414
rwrist -9.45805
rhand -11.2395 6.97326
rfingers 7.12502
rthumb 14.7898 -22.479
lclavicle 7.0817e-016 -2.08724e-014
lhumerus -40.8141 18.9834 75.5293
lradius 36.576
lwrist -23.5837
lhand -21.629 59.1329
lfingers 7.12502
lthumb 4.76703 -270.941
rfemur -5.01117 3.16881 35.7983
rtibia 31.3305
rfoot -15.5666 -9.78296
rtoes 22.0427
lfemur -27.3991 -11.7288 -12.9111
ltibia 62.8882
lfoot -6.90068 2.01961
ltoes -18.7279
318
root 1.61998 17.9628 29.7704 -5.60185 1.55354 -5.33621
lowerback 18.9419 0.0554653 2.88343
upperback 0.616525 0.942273 2.32858
thorax -9.97673 0.374615 0.647452
lowerneck -7.21985 1.03627 1.28194
upperneck 34.0195 1.58851 -0.8749
head 12.4481 0.780654 -0.360319
rclavicle 1.8077e-015 1.2921e-014
rhumerus -39.0711 -1.79189 -82.4809
rradius 55.3382
rwrist -9.01683
rhand -10.8129 7.31514
rfingers 7.12502
rthumb 15.2008 -22.1065
lclavicle 1.8077e-015 1.2921e-014
lhumerus -41.3177 20.0061 74.5523
lradius 36.2487
lwrist -20.9916
lhand -21.7276 58.4114
lfingers 7.12502
lthumb 4.67179 -271.66
rfemur -4.05933 2.69283 36.2211
rtibia 30.9067
rfoot -15.9876 -9.32446
rtoes 22.5504
lfemur -28.0488 -11.7004 -12.308
ltibia 61.1619
lfoot -7.61264 2.08477
ltoes -18.5986
319
root 1.62085 17.9594 29.9688 -5.42778 0.940851 -5.30513
lowerback 18.8234 0.159787 2.8493
upperback 0.614341 1.05662 2.23213
thorax -9.91012 0.42822 0.530591
lowerneck -7.15429 1.38157 1.33402
upperneck 34.0251 2.02755 -0.702942
head 12.4419 1.00308 -0.249677
rclavicle -2.24689e-014 -3.19049e-014
rhumerus -38.7277 -0.73513 -83.0564
rradius 55.7148
rwrist -8.57201
rhand -10.5537 7.53003
rfingers 7.12502
rthumb 15.4504 -21.8725
lclavicle -2.24689e-014 -3.19049e-014
lhumerus -41.6761 21.1729 73.486
lradius 35.8032
lwrist -18.1642
lhand -22.1244 58.3503
lfingers 7.12502
lthumb 4.28867 -271.713
rfemur -3.19059 2.26499 36.2548
rtibia 30.3695
rfoot -16.2375 -9.03731
rtoes 22.9987
lfemur -28.567 -11.6178 -12.1482
ltibia 59.1922
lfoot -8.25019 2.42218
ltoes -20.2479
320
root 1.62214 17.9615 30.172 -5.20471 0.277071 -5.3813
lowerback 18.5922 0.275374 2.97961
upperback 0.58812 1.21651 2.13128
thorax -9.80284 0.496143 0.304645
lowerneck -6.95823 1.7376 1.75502
upperneck 34.0264 2.51444 -0.850408
head 12.4177 1.25521 -0.32182
rclavicle -1.31912e-014 -6.95746e-015
rhumerus -38.3509 0.223974 -83.6001
rradius 56.025
rwrist -8.08164
rhand -10.1467 7.77557
rfingers 7.12502
rthumb 15.8424 -21.5963
lclavicle -1.31912e-014 -6.95746e-015
lhumerus -41.8738 22.9257 72.0193
lradius 34.9773
lwrist -16.2401
lhand -22.0714 58.4244
lfingers 7.12502
lthumb 4.33985 -271.64
rfemur -2.24325 1.8949 36.3964
rtibia 29.5979
rfoot -16.4076 -8.86615
rtoes 22.5657
lfemur -28.9487 -11.3463 -11.8913
ltibia 57.0039
lfoot -8.50947 2.9169
ltoes -21.8445
321
root 1.61512 17.9513 30.364 -5.00359 -0.578659 -5.9958
lowerback 18.5647 0.422591 3.47484
upperback 0.536251 1.52755 2.23932
thorax -9.83157 0.622517 0.0593774
lowerneck -6.89433 2.08623 2.18161
upperneck 34.1888 3.01576 -1.06955
head 12.4949 1.5052 -0.418941
rclavicle -1.08043e-014 5.24295e-015
rhumerus -37.8627 1.02058 -84.0325
rradius 56.1224
rwrist -7.5632
rhand -9.75118 8.2444
rfingers 7.12502
rthumb 16.2232 -21.0968
lclavicle -1.08043e-014 5.24295e-015
lhumerus -42.3544 24.3612 70.6705
lradius 34.6703
lwrist -14.3513
lhand -22.1858 57.952
lfingers 7.12502
lthumb 4.22938 -272.11
rfemur -1.12885 2.06261 37.27
rtibia 28.6901
rfoot -16.7413 -9.12848
rtoes 22.0158
lfemur -29.4755 -10.9994 -10.9052
ltibia 54.6804
lfoot -8.3114 3.08814
ltoes -21.6596
322
root 1.61823 17.9681 30.5968 -4.7133 -1.29439 -5.67162
lowerback 17.9293 0.637297 3.20747
upperback 0.543762 1.70975 2.11577
thorax -9.46575 0.724098 0.0361427
lowerneck -6.80023 2.42913 2.21151
upperneck 34.3097 3.5001 -1.01336
head 12.5367 1.73167 -0.342998
rclavicle 6.78819e-015 6.68413e-015
rhumerus -37.6326 1.82062 -84.2939
rradius 56.5659
rwrist -7.08713
rhand -9.25309 8.36761
rfingers 7.12502
rthumb 16.7028 -20.9338
lclavicle 6.78819e-015 6.68413e-015
lhumerus -43.3058 24.598 69.9931
lradius 35.6796
lwrist -11.3062
lhand -22.445 57.7765
lfingers 7.12502
lthumb 3.9791 -272.281
rfemur 0.214555 1.85562 36.907
rtibia 27.6454
rfoot -17.2434 -9.08008
rtoes 20.2173
lfemur -29.6939 -11.0619 -11.0904
ltibia 52.0192
lfoot -8.36477 3.49035
ltoes -20.971
323
root 1.61488 17.9731 30.7929 -4.29887 -2.04794 -5.69619
lowerback 17.7563 0.846356 3.14036
upperback 0.336955 1.97289 2.12042
thorax -9.59405 0.849551 0.0142995
lowerneck -6.45823 2.79199 2.25409
upperneck 34.3847 4.01558 -0.95567
head 12.508 1.97614 -0.269201
rclavicle 4.54875e-015 -2.40157e-014
rhumerus -37.671 2.60734 -84.5197
rradius 56.9625
rwrist -6.48993
rhand -8.95702 8.65029
rfingers 7.12502
rthumb 16.9878 -20.6269
lclavicle 4.54875e-015 -2.40157e-014
lhumerus -44.467 24.6037 69.3477
lradius 36.9045
lwrist -8.26061
lhand -22.8742 57.3015
lfingers 7.12502
lthumb 3.56454 -272.749
rfemur 1.22042 2.19441 37.0765
rtibia 26.5151
rfoot -17.2492 -9.52646
rtoes 19.955
lfemur -30.1945 -11.0502 -10.7384
ltibia 49.3166
lfoot -7.85945 3.99581
ltoes -19.7423
324
root 1.60615 17.9678 30.997 -4.04885 -2.69856 -5.63343
lowerback 17.4911 1.08131 2.96801
upperback 0.28251 2.23566 2.09292
thorax -9.50483 0.983342 0.0202633
lowerneck -6.15257 3.18172 2.66136
upperneck 34.4034 4.60788 -1.22546
head 12.4859 2.26222 -0.375683
rclavicle 1.30103e-014 2.96935e-015
rhumerus -37.583 3.10693 -84.6888
rradius 57.2688
rwrist -5.98108
rhand -8.87623 9.27015
rfingers 7.12502
rthumb 17.0656 -20.0003
lclavicle 1.30103e-014 2.96935e-015
lhumerus -45.3781 25.0636 68.4258
lradius 37.5248
lwrist -5.60756
lhand -23.7046 56.118
lfingers 7.12502
lthumb 2.76266 -273.92
rfemur 2.38729 2.57218 37.1846
rtibia 25.3843
rfoot -17.2265 -9.88242
rtoes 20.8509
lfemur -30.3995 -11.1149 -10.5151
ltibia 46.5184
lfoot -7.12819 4.37003
ltoes -18.5593
325
root 1.5984 17.9569 31.209 -3.85161 -3.28685 -5.6507
lowerback 17.1198 1.28656 2.87529
upperback 0.43694 2.46672 2.10846
thorax -9.12632 1.1052 0.0417377
lowerneck -6.26643 3.65838 2.93362
upperneck 34.3833 5.31894 -1.41736
head 12.537 2.58952 -0.405357
rclavicle -8.96317e-015 5.86415e-015
rhumerus -37.0903 3.41237 -84.7474
rradius 57.6711
rwrist -5.51101
rhand -8.64445 9.49185
rfingers 7.12502
rthumb 17.2887 -19.7592
lclavicle -8.96317e-015 5.86415e-015
lhumerus -45.9058 25.9191 67.4953
lradius 37.9114
lwrist -3.13296
lhand -24.5841 55.3113
lfingers 7.12502
lthumb 1.91324 -274.718
rfemur 3.65858 2.99069 37.361
rtibia 24.2384
rfoot -17.1249 -10.1614
rtoes 20.0788
lfemur -30.4889 -11.3011 -10.2292
ltibia 43.831
lfoot -6.78243 4.99038
ltoes -17.9996
326
root 1.59179 17.9462 31.4212 -3.65614 -3.91356 -5.77877
lowerback 16.9163 1.51132 2.91543
upperback 0.517331 2.76291 2.14956
thorax -8.91937 1.25006 -0.00214913
lowerneck -5.40489 3.79121 3.23009
upperneck 34.1199 5.47176 -1.42344
head 12.2623 2.70527 -0.462162
rclavicle 1.7985e-014 1.38901e-014
rhumerus -36.5552 3.70828 -84.7473
rradius 57.6552
rwrist -5.22944
rhand -8.53894 9.71034
rfingers 7.12502
rthumb 17.3902 -19.5317
lclavicle 1.7985e-014 1.38901e-014
lhumerus -46.5456 27.1454 66.2401
lradius 38.0115
lwrist -1.38428
lhand -24.9801 54.4537
lfingers 7.12502
lthumb 1.53076 -275.572
rfemur 5.03088 3.36138 37.5974
rtibia 22.9743
rfoot -17.0689 -10.1394
rtoes 19.9839
lfemur -30.4954 -11.4775 -9.87209
ltibia 41.2622
lfoot -6.67048 6.07344
ltoes -18.8544
327
root 1.58422 17.9394 31.6327 -3.48603 -4.49424 -5.94295
lowerback 16.8862 1.70423 3.06464
upperback 0.351768 3.05172 2.13742
thorax -9.07085 1.37813 -0.170001
lowerneck -4.91361 4.1159 3.53019
upperneck 34.4599 5.92922 -1.43658
head 12.3315 2.95118 -0.47322
rclavicle -7.70213e-015 -6.49777e-015
rhumerus -36.7883 3.7952 -84.8355
rradius 57.9206
rwrist -4.89902
rhand -8.42145 9.98698
rfingers 7.12502
rthumb 17.5033 -19.2451
lclavicle -7.70213e-015 -6.49777e-015
lhumerus -47.667 28.3853 64.4215
lradius 37.8011
lwrist 0.00231705
lhand -25.0683 54.4353
lfingers 7.12502
lthumb 1.4456 -275.59
rfemur 6.42644 3.63332 37.8362
rtibia 21.7027
rfoot -16.9327 -10.0625
rtoes 18.6775
lfemur -30.5502 -11.7212 -9.47592
ltibia 38.8003
lfoot -6.78151 7.16154
ltoes -17.8658
328
root 1.58059 17.9307 31.8392 -3.25664 -4.9128 -6.06583
lowerback 16.6609 1.84534 3.19894
upperback 0.215406 3.26028 2.14049
thorax -9.08234 1.47154 -0.286527
lowerneck -4.69796 4.52495 4.01564
upperneck 35.1549 6.53136 -1.57937
head 12.6324 3.26544 -0.537816
rclavicle -5.93015e-015 -8.03835e-015
rhumerus -37.1725 3.63964 -84.859
rradius 58.3714
rwrist -4.5462
rhand -8.32787 10.5369
rfingers 7.12502
rthumb 17.5933 -18.6871
lclavicle -5.93015e-015 -8.03835e-015
lhumerus -48.9504 29.1 62.9732
lradius 38.3464
lwrist 2.1166
lhand -24.6106 56.9729
lfingers 7.12502
lthumb 1.88764 -273.056
rfemur 7.60813 3.86301 37.9646
rtibia 20.578
rfoot -16.9102 -9.94525
rtoes 17.0853
lfemur -30.794 -12.0163 -9.15812
ltibia 36.3974
lfoot -7.26329 8.18967
ltoes -18.2642
329
root 1.57339 17.9167 32.044 -3.10289 -5.36361 -6.08793
lowerback 16.5421 2.06441 3.14905
upperback 0.161217 3.54239 2.18994
thorax -9.0748 1.61019 -0.268546
lowerneck -4.69432 4.9594 4.28652
upperneck 35.8992 7.16563 -1.5814
head 12.9954 3.58049 -0.498069
rclavicle 6.58862e-015 -1.43777e-014
rhumerus -37.35 3.47303 -84.6863
rradius 58.7552
rwrist -4.32441
rhand -8.43061 10.4328
rfingers 7.12502
rthumb 17.4945 -18.8
lclavicle 6.58862e-015 -1.43777e-014
lhumerus -50.1472 30.1457 61.4288
lradius 38.6603
lwrist 4.14247
lhand -24.6294 58.7934
lfingers 7.12502
lthumb 1.86946 -271.235
rfemur 8.69088 4.01581 37.9559
rtibia 19.6774
rfoot -16.7948 -9.73721
rtoes 15.2429
lfemur -30.8593 -11.9587 -9.06104
ltibia 34.0442
lfoot -7.9656 8.92363
ltoes -18.869
330
root 1.5691 17.9087 32.2561 -2.86391 -5.78806 -5.85128
lowerback 16.2794 2.33266 2.98382
upperback 0.0710612 3.8484 2.08152
thorax -9.02138 1.76275 -0.354942
lowerneck -4.41775 5.28401 4.4738
upperneck 36.3805 7.61168 -1.45196
head 13.1734 3.82212 -0.425642
rclavicle 8.28645e-015 -1.21072e-014
rhumerus -37.421 3.07353 -84.5442
rradius 58.8969
rwrist -4.38684
rhand -8.47553 10.1204
rfingers 7.12502
rthumb 17.4512 -19.1163
lclavicle 8.28645e-015 -1.21072e-014
lhumerus -51.296 31.9866 58.9425
lradius 37.8716
lwrist 5.25224
lhand -25.028 58.7338
lfingers 7.12502
lthumb 1.48457 -271.292
rfemur 9.5075 4.02928 37.5386
rtibia 19.1153
rfoot -16.822 -9.21294
rtoes 13.9193
lfemur -30.9015 -12.0435 -9.26083
ltibia 31.7073
lfoot -8.73064 9.61529
ltoes -18.3611
